<svg width="500" height="500" version="1.1" xmlns="http://www.w3.org/2000/svg" desc="Created with imagetracer.js version 1.2.6" ><path fill="rgb(33,42,57)" stroke="rgb(33,42,57)" stroke-width="1" opacity="0.8117647058823529" d="M 233.5 127 L 257.5 127 L 270.5 130 Q 287.2 135.8 297 148.5 L 300.5 154 Q 312.7 145.7 334.5 147 Q 359.5 151 371 168.5 Q 378.6 178.4 382 192.5 L 383 197.5 L 383 217.5 Q 377.4 241.4 360.5 254 L 352 259.5 L 357 283.5 Q 361.5 297.5 370 307.5 L 370 310.5 L 367.5 314 L 363.5 316 L 337.5 317 L 313.5 322 L 278.5 335 L 263.5 343 L 252 352.5 Q 250.4 363.4 242.5 368 L 236.5 370 L 229.5 368 L 223 361.5 L 214.5 346 Q 208.8 351.3 199.5 353 L 180.5 354 L 179.5 353 L 168.5 352 L 156.5 348 Q 138.3 340.7 126 327.5 L 117 313.5 L 114 302.5 L 114 294.5 Q 116 283.5 121 275.5 L 137 258.5 L 138 246.5 L 144 230.5 L 159.5 213 Q 169.7 204.8 184 202 Q 180.6 156.3 205.5 138 L 220.5 130 L 233.5 127 Z M 243 139 L 242 140 L 234 140 L 225 142 L 215 147 Q 205 154 200 167 L 196 187 L 196 198 L 197 199 L 198 212 L 197 213 L 187 214 L 176 218 L 161 228 Q 155 235 151 247 L 149 258 L 149 266 L 141 272 Q 131 280 127 294 L 127 303 L 129 310 L 136 320 Q 152 336 179 341 Q 197 343 207 337 L 212 330 Q 213 323 210 320 L 208 317 L 201 316 L 191 311 L 185 306 L 182 304 L 175 296 L 175 294 Q 186 308 207 313 L 212 312 L 227 293 L 236 285 L 237 279 L 234 276 Q 221 265 214 248 L 215 246 L 223 258 Q 232 268 246 274 L 251 273 L 262 265 L 281 257 Q 290 248 295 236 L 300 221 L 302 204 L 302 202 L 299 188 L 301 187 L 305 195 L 309 210 L 308 231 L 299 252 L 312 250 L 321 250 Q 335 244 346 234 Q 355 228 359 216 Q 358 211 361 212 L 361 222 L 356 231 Q 348 241 337 247 L 334 251 L 342 251 L 357 241 L 367 227 L 371 213 L 370 197 Q 367 184 360 176 Q 352 164 337 160 Q 324 158 316 161 Q 303 165 294 172 L 287 157 Q 274 138 243 139 Z M 314 261 L 313 262 L 305 262 L 296 264 L 277 271 Q 258 279 244 292 Q 229 304 218 320 L 219 327 L 232 353 L 235 356 Q 234 358 237 357 L 239 355 L 241 347 L 247 341 L 262 331 L 288 319 L 323 309 L 353 305 Q 347 297 344 286 L 340 264 L 337 261 L 314 261 Z " /><path fill="rgb(0,0,0)" stroke="rgb(0,0,0)" stroke-width="1" opacity="0" d="M 0 0 L 500 0 L 500 500 L 0 500 L 0 0 Z M 234 127 L 221 130 L 206 138 Q 181 156 184 202 Q 170 205 160 213 L 144 231 L 138 247 L 137 259 L 121 276 Q 116 283 114 295 L 114 303 L 117 314 L 126 328 Q 138 341 157 348 L 169 352 L 180 353 L 181 354 L 200 353 Q 209 351 215 346 L 223 362 L 230 368 L 237 370 L 243 368 Q 250 363 252 353 L 264 343 L 279 335 L 314 322 L 338 317 L 364 316 L 368 314 L 370 311 L 370 308 Q 362 297 357 284 L 352 260 L 361 254 Q 377 241 383 218 L 383 198 L 382 193 Q 379 178 371 169 Q 359 151 335 147 Q 313 146 301 154 L 297 149 Q 287 136 271 130 L 258 127 L 234 127 Z " /><path fill="rgb(0,0,0)" stroke="rgb(0,0,0)" stroke-width="1" opacity="0" d="M 242.5 139 Q 274 138.5 287 156.5 L 294 172 Q 302.9 165.2 315.5 161 Q 323.8 158.3 336.5 160 Q 351.8 164.2 360 175.5 Q 366.8 184.2 370 196.5 L 371 212.5 L 367 226.5 L 357 241 L 341.5 251 L 333.5 251 L 336.5 247 Q 348.1 240.6 356 230.5 L 361 221.5 L 361 212 Q 357.7 210.7 359 215.5 Q 355.1 227.6 345.5 234 Q 334.6 243.6 320.5 250 L 311.5 250 L 299 252 L 308 230.5 L 309 209.5 L 305 194.5 L 300.5 187 L 299 187.5 L 302 201.5 L 302 203.5 L 300 220.5 L 295 235.5 Q 289.6 248.1 280.5 257 L 261.5 265 L 250.5 273 L 245.5 274 Q 231.8 268.2 223 257.5 L 214.5 246 L 214 247.5 Q 220.6 264.9 233.5 276 L 237 278.5 L 236 285 L 227 292.5 L 211.5 312 L 206.5 313 Q 186.8 308.2 175.5 295 L 175 296.5 L 181.5 304 L 184.5 306 L 190.5 311 L 200.5 316 L 207.5 317 L 210 319.5 Q 212.7 322.8 212 329.5 L 206.5 337 Q 196.8 343.3 178.5 341 Q 151.5 336 136 319.5 L 129 309.5 L 127 302.5 L 127 293.5 Q 130.8 279.8 140.5 272 L 149 265.5 L 149 257.5 L 151 246.5 Q 154.8 235.3 161 228 L 175.5 218 L 186.5 214 L 196.5 213 L 198 211.5 L 197 198.5 L 196 197.5 L 196 186.5 L 200 166.5 Q 204.8 154.3 214.5 147 L 224.5 142 L 233.5 140 L 241.5 140 L 242.5 139 Z " /><path fill="rgb(0,0,0)" stroke="rgb(0,0,0)" stroke-width="1" opacity="0" d="M 313.5 261 L 336.5 261 L 340 263.5 L 344 285.5 Q 346.8 296.7 353 304.5 L 322.5 309 L 287.5 319 L 261.5 331 L 246.5 341 L 241 346.5 L 239 354.5 L 236.5 357 Q 234.3 357.8 235 355.5 L 232 352.5 L 219 326.5 L 218 319.5 Q 228.9 303.9 243.5 292 Q 257.8 279.3 276.5 271 L 295.5 264 L 304.5 262 L 312.5 262 L 313.5 261 Z " /></svg>